:SAMPLES-PER-SECOND 30
:FULLY-SPECIFIED
:DEGREES
387
root  41.0708 37.5759 2.65617 41.9878 80.7565 48.6553
RightUpLeg  12.1146 0.147885 -18.4135
RightLeg  38.1472 -5.46464 -4.8568
RightFoot  -6.10471 -0.542984 12.0563
RightToes  -3.31784e-009 0 -3.6325e-017
Spine  11.4112 2.72456 1.79867
Spine1  4.13482 5.49834 -13.1517
HEad  -24.7115 0.500415 -5.67869
LeftShoulder1  -0.552985 4.80159 -36.2579
LeftArm  -6.03371 -2.56703 -38.7265
LeftForeArm  37.0473 -1.52242 -7.94533
LeftHand  -0.145344 10.7448 -1.8033
RightShoulder  -0.688053 -5.53438 27.1166
RightArm  16.0567 19.4632 48.9331
RightForeArm  11.1952 33.7148 6.87167
RightHand  -0.539647 8.45147 -4.89282
LeftUpLeg  -14.3909 7.2824 -6.40969
LeftLeg  24.6474 2.75139 1.72646
LeftFoot  -2.85328 -0.219678 3.18983
LeftToes  1.28511e-009 -3.60458e-011 6.16399e-011
388
root  41.8833 37.873 2.37959 40.9921 80.7324 47.7487
RightUpLeg  6.01563 0.834415 -17.959
RightLeg  47.4062 -4.49854 -5.45074
RightFoot  1.88533 -0.885049 7.43011
RightToes  -3.31784e-009 0 -3.6325e-017
Spine  12.0197 2.18929 0.403719
Spine1  2.56176 4.43347 -12.5679
HEad  -24.1145 2.47478 -6.62603
LeftShoulder1  -0.376383 4.43535 -34.3282
LeftArm  -6.70332 -3.8119 -40.8542
LeftForeArm  35.9448 -3.34663 -7.5873
LeftHand  -0.106046 10.5529 -1.01774
RightShoulder  -0.828954 -5.83444 28.9571
RightArm  22.6675 16.5553 49.6305
RightForeArm  7.40961 28.0901 5.58519
RightHand  -0.410463 7.32326 -4.08991
LeftUpLeg  -11.7769 7.77159 -6.64544
LeftLeg  22.5199 2.3787 1.42289
LeftFoot  -3.52085 -0.179331 2.93191
LeftToes  1.28511e-009 -3.60458e-011 6.16399e-011
389
root  42.5993 38.103 2.15422 38.2278 80.916 45.4637
RightUpLeg  0.968164 1.3373 -17.023
RightLeg  54.0527 -1.24243 -2.23517
RightFoot  -0.152479 -0.928764 9.43662
RightToes  -3.31784e-009 0 -3.6325e-017
Spine  12.8328 1.94637 -1.99571
Spine1  1.9551 3.10371 -9.51643
HEad  -24.1599 3.89006 -7.98025
LeftShoulder1  -0.418189 4.53402 -34.4183
LeftArm  -6.30876 -5.5099 -41.7005
LeftForeArm  33.2787 -6.71541 -7.86492
LeftHand  -0.0401574 10.1172 0.340708
RightShoulder  -0.698513 -5.51219 28.121
RightArm  26.7807 12.8725 51.5361
RightForeArm  5.67087 21.7246 5.0466
RightHand  -0.353499 6.38192 -3.80549
LeftUpLeg  -9.12742 8.03641 -6.39155
LeftLeg  20.8813 2.38469 1.17615
LeftFoot  -4.22667 -0.143629 2.72319
LeftToes  1.28511e-009 -3.60458e-011 6.16399e-011
390
root  43.3196 38.3003 1.98609 35.1702 81.5257 42.6452
RightUpLeg  -4.24998 1.32018 -15.3332
RightLeg  58.753 0.665827 0.67587
RightFoot  -0.280192 -0.958656 9.85475
RightToes  -3.31784e-009 0 -3.6325e-017
Spine  11.968 1.6655 -3.4444
Spine1  3.56548 2.26797 -7.61335
HEad  -24.667 4.48655 -8.30219
LeftShoulder1  -0.32878 4.3298 -33.667
LeftArm  -3.8118 -7.89522 -42.8343
LeftForeArm  27.7258 -11.0165 -7.54656
LeftHand  -0.0360666 9.38276 0.405579
RightShoulder  -0.783446 -5.69083 29.1588
RightArm  24.8037 10.6716 51.6049
RightForeArm  9.35234 14.3423 7.31971
RightHand  -0.494141 6.40587 -5.15851
LeftUpLeg  -6.89749 7.1025 -5.65021
LeftLeg  19.5891 3.04684 0.840508
LeftFoot  -4.93363 -0.133858 2.92454
LeftToes  1.28511e-009 -3.60458e-011 6.16399e-011
391
root  44.0502 38.4656 1.85066 32.4781 81.9528 40.0934
RightUpLeg  -9.36098 1.34693 -13.5047
RightLeg  61.3551 0.708271 0.877654
RightFoot  -0.495855 -0.858005 8.98955
RightToes  -3.31784e-009 0 -3.6325e-017
Spine  12.3883 1.51591 -4.99166
Spine1  3.16537 1.46578 -5.65855
HEad  -24.7726 4.95752 -8.01368
LeftShoulder1  -0.332831 4.35704 -32.8541
LeftArm  1.94998 -8.97635 -43.8061
LeftForeArm  20.3554 -17.5399 -5.69864
LeftHand  -0.0242927 8.74196 0.813822
RightShoulder  -0.903035 -5.95742 30.232
RightArm  18.8948 6.56819 50.5209
RightForeArm  18.4039 8.65561 8.71328
RightHand  -0.254525 4.78934 -3.23006
LeftUpLeg  -4.73609 6.73266 -5.0387
LeftLeg  18.2228 3.32791 0.312923
LeftFoot  -5.62771 -0.127347 3.22874
LeftToes  1.28511e-009 -3.60458e-011 6.16399e-011
392
root  44.7949 38.5945 1.69608 30.0296 82.1748 37.61
RightUpLeg  -14.2217 0.868091 -12.0564
RightLeg  61.5001 -0.0503187 -0.600929
RightFoot  -1.10333 -0.823174 9.07712
RightToes  -3.31784e-009 0 -3.6325e-017
Spine  12.2519 1.45718 -6.29654
Spine1  3.30905 0.904102 -3.54635
HEad  -25.0231 4.76464 -7.93756
LeftShoulder1  -0.399693 4.52502 -33.021
LeftArm  4.4973 -10.2604 -43.8802
LeftForeArm  16.1331 -23.86 -4.21697
LeftHand  0.0101076 7.52737 2.68013
RightShoulder  -0.940082 -6.02476 30.6433
RightArm  16.5625 1.99598 49.1124
RightForeArm  21.9123 4.85743 8.69605
RightHand  -0.190248 3.23864 -2.78104
LeftUpLeg  -2.81576 6.55686 -4.70935
LeftLeg  16.9271 3.563 -0.0657448
LeftFoot  -6.31821 -0.115336 3.49786
LeftToes  1.28511e-009 -3.60458e-011 6.16399e-011
393
root  45.5911 38.6571 1.50246 27.0972 82.1887 35.0734
RightUpLeg  -17.6043 0.573194 -10.7556
RightLeg  58.7846 -0.884279 -2.03932
RightFoot  -1.99943 -0.716644 8.60048
RightToes  -3.31784e-009 0 -3.6325e-017
Spine  12.5476 1.27519 -6.72283
Spine1  3.42678 0.565112 -2.65634
HEad  -25.7724 5.57954 -7.62387
LeftShoulder1  -0.46875 4.71449 -32.4873
LeftArm  -0.0438745 -10.5196 -44.0141
LeftForeArm  19.7389 -30.038 -5.43404
LeftHand  0.0141843 6.84496 3.84827
RightShoulder  -1.122 -6.41119 32.0534
RightArm  15.9116 -2.98716 46.4269
RightForeArm  24.4205 3.73884 8.22096
RightHand  -0.0959519 2.59474 -1.62717
LeftUpLeg  -0.594449 6.78606 -4.52565
LeftLeg  16.1276 3.6232 -0.364612
LeftFoot  -7.38127 -0.0913528 3.9436
LeftToes  1.28511e-009 -3.60458e-011 6.16399e-011
394
root  46.2471 38.6524 1.36013 28.8836 83.3948 36.8544
RightUpLeg  -20.3642 -0.827308 -9.40451
RightLeg  53.5079 -1.29927 -2.27855
RightFoot  -2.87597 -0.694417 9.09103
RightToes  -3.31784e-009 0 -3.6325e-017
Spine  13.4405 0.746906 -7.85877
Spine1  2.90354 -0.543711 -0.127859
HEad  -26.8003 6.33176 -8.07969
LeftShoulder1  -0.611432 5.05218 -33.3265
LeftArm  -2.96959 -11.035 -43.1582
LeftForeArm  23.189 -36.3292 -6.84365
LeftHand  0.0107916 7.69095 2.45362
RightShoulder  -1.09737 -6.36469 31.7803
RightArm  15.5787 -8.38234 44.2996
RightForeArm  25.1691 4.33273 7.80053
RightHand  -0.0870175 1.66339 -1.56327
LeftUpLeg  0.355055 7.18188 -4.16462
LeftLeg  16.4468 2.1017 -0.740261
LeftFoot  -8.61188 -0.0537184 4.39853
LeftToes  1.28511e-009 -3.60458e-011 6.16399e-011
395
root  46.9861 38.6524 1.21418 31.6466 83.9872 39.773
RightUpLeg  -22.0182 -1.49503 -8.50866
RightLeg  45.9981 -1.32028 -1.78377
RightFoot  -3.0332 -0.721251 9.64216
RightToes  -3.31784e-009 0 -3.6325e-017
Spine  14.0074 0.333432 -8.10506
Spine1  2.65983 -1.01973 0.591507
HEad  -26.9926 6.09595 -7.60652
LeftShoulder1  -0.521977 4.84862 -32.6704
LeftArm  -5.12381 -10.5473 -43.076
LeftForeArm  24.9536 -41.6391 -8.31724
LeftHand  0.0181948 7.09612 3.55891
RightShoulder  -1.2536 -6.70539 32.6277
RightArm  17.3969 -12.9873 41.2111
RightForeArm  25.556 5.57013 8.05527
RightHand  0.00819789 1.4101 -0.00289816
LeftUpLeg  1.89885 7.14908 -4.30375
LeftLeg  16.1729 1.55717 -0.825991
LeftFoot  -9.79909 0.00165318 4.2586
LeftToes  1.28511e-009 -3.60458e-011 6.16399e-011
396
root  47.7919 38.6456 1.07967 31.4053 83.7009 39.3955
RightUpLeg  -23.1581 -0.974869 -7.78568
RightLeg  37.1617 -0.928447 -1.01138
RightFoot  -3.6159 -0.749916 10.703
RightToes  -3.31784e-009 0 -3.6325e-017
Spine  13.7309 0.137738 -8.8026
Spine1  3.01307 -1.36858 1.80357
HEad  -27.1675 6.60561 -7.56231
LeftShoulder1  -0.690497 5.25778 -33.1944
LeftArm  -6.75073 -9.53357 -42.084
LeftForeArm  26.3796 -46.8851 -10.0598
LeftHand  0.0287269 6.99467 4.39749
RightShoulder  -1.20735 -6.60634 32.3479
RightArm  18.6628 -17.2365 39.2547
RightForeArm  25.7521 6.88928 8.08128
RightHand  0.0563872 1.618 0.788946
LeftUpLeg  3.44623 7.14361 -4.61364
LeftLeg  15.5288 1.98408 -0.868512
LeftFoot  -10.8414 0.0463837 4.41585
LeftToes  1.28511e-009 -3.60458e-011 6.16399e-011
397
root  48.5589 38.6563 0.9365 32.5388 84.1765 40.0616
RightUpLeg  -23.7921 -0.842422 -7.03587
RightLeg  27.6757 -0.225943 -0.342474
RightFoot  -3.21897 -0.77536 10.5818
RightToes  -3.31784e-009 0 -3.6325e-017
Spine  13.6054 -0.332692 -8.67498
Spine1  2.72502 -1.89627 2.91193
HEad  -26.5997 6.91371 -7.55016
LeftShoulder1  -0.772404 5.44289 -33.6634
LeftArm  -7.42276 -7.87385 -41.4083
LeftForeArm  27.8907 -50.8029 -11.5774
LeftHand  0.0227582 6.89437 4.25061
RightShoulder  -1.08612 -6.37422 31.2969
RightArm  19.1925 -21.8093 37.9802
RightForeArm  25.5832 8.70807 7.63285
RightHand  0.0518659 1.84262 0.678988
LeftUpLeg  4.50806 7.15807 -4.57168
LeftLeg  14.9714 1.45816 -1.0402
LeftFoot  -11.7726 0.088314 4.76207
LeftToes  1.28511e-009 -3.60458e-011 6.16399e-011
398
root  49.3842 38.6354 0.812018 32.7187 83.8894 39.7998
RightUpLeg  -23.9713 0.152601 -6.78186
RightLeg  18.3878 0.987811 0.107751
RightFoot  -2.97438 -0.799033 10.6179
RightToes  -3.31784e-009 0 -3.6325e-017
Spine  12.5653 -0.646627 -7.52466
Spine1  3.62778 -1.7063 1.6767
HEad  -26.253 6.44964 -6.60735
LeftShoulder1  -0.687345 5.26941 -32.7728
LeftArm  -7.61607 -6.37073 -41.5248
LeftForeArm  28.7209 -52.9567 -12.5642
LeftHand  -0.0103216 5.75886 4.86486
RightShoulder  -1.20261 -6.62337 32.002
RightArm  20.3805 -24.0797 36.2979
RightForeArm  24.4616 9.06432 7.67877
RightHand  0.0183261 2.17523 0.0952801
LeftUpLeg  5.91735 6.83684 -5.06137
LeftLeg  13.9169 1.88952 -0.953834
LeftFoot  -12.5942 0.127565 4.71879
LeftToes  1.28511e-009 -3.60458e-011 6.16399e-011
399
root  50.2393 38.6025 0.697876 33.8834 83.7929 40.4818
RightUpLeg  -23.9565 -0.899708 -5.803
RightLeg  10.1424 3.83953 -0.0371904
RightFoot  -2.53263 -0.847883 10.7498
RightToes  -3.31784e-009 0 -3.6325e-017
Spine  12.0326 -0.920015 -6.30059
Spine1  3.75143 -1.57444 0.669095
HEad  -25.9478 6.44148 -6.14343
LeftShoulder1  -0.603215 5.08397 -32.0236
LeftArm  -6.89351 -4.08966 -41.5214
LeftForeArm  29.1885 -54.4906 -13.3279
LeftHand  -0.0115399 5.70198 5.14922
RightShoulder  -1.34486 -6.9207 32.839
RightArm  20.6312 -25.7426 34.6265
RightForeArm  24.2807 9.43964 7.42592
RightHand  0.0321491 2.10013 0.330304
LeftUpLeg  7.31414 6.57592 -5.52448
LeftLeg  12.8698 2.24098 -0.865547
LeftFoot  -13.3162 0.164804 4.91357
LeftToes  1.28511e-009 -3.60458e-011 6.16399e-011
